<svg xmlns="http://www.w3.org/2000/svg" width="17.225" height="16.118" viewBox="0 0 17.225 16.118">
  <g id="icon_like" data-name="icon like" transform="translate(-1489.968 647.224)">
    <path id="Path_391" data-name="Path 391" d="M1602.19-641.444h5a1.8,1.8,0,0,1,1.806,1.286,1.593,1.593,0,0,1,.059.314,5.2,5.2,0,0,1-.626,2.935c-.727,1.538-1.395,3.1-2.079,4.663a1.729,1.729,0,0,1-1.736,1.139c-2.253-.014-4.506,0-6.76-.005a1.565,1.565,0,0,1-1.518-.9,1.977,1.977,0,0,1-.18-.831c-.013-2.67-.01-5.34-.006-8.011a1.763,1.763,0,0,1,.544-1.293q2.494-2.485,4.978-4.981a.253.253,0,0,1,.325-.068,2.15,2.15,0,0,1,1.3,1.18,1.6,1.6,0,0,1,.037,1.118q-.5,1.519-1.006,3.037C1602.28-641.726,1602.238-641.593,1602.19-641.444Z" transform="translate(-101.892)" fill="#afb0b9"/>
    <rect id="Rectangle_1837" data-name="Rectangle 1837" width="2.568" height="10.304" rx="1.284" transform="translate(1489.968 -641.431)" fill="#afb0b9"/>
  </g>
</svg>
